<svg xmlns="http://www.w3.org/2000/svg" xmlns:xlink="http://www.w3.org/1999/xlink" contentStyleType="text/css" data-diagram-type="GANTT" height="563px" preserveAspectRatio="none" style="width:504px;height:563px;background:#FFFFFF;" version="1.1" viewBox="0 0 504 563" width="504px" zoomAndPan="magnify"><title>MVP (Sept) -&gt; hardening (Oct) -&gt; integration (Nov)</title><defs/><g><g class="title" data-source-line="2"><text fill="#000000" font-family="sans-serif" font-size="14" font-weight="bold" lengthAdjust="spacing" textLength="345.8127" x="68.5937" y="24.9659">MVP (Sept) -&gt; hardening (Oct) -&gt; integration (Nov)</text></g><rect fill="#F1E5E5" height="478.6196" style="stroke:none;stroke-width:1;" width="8" x="20" y="67.0679"/><rect fill="#F1E5E5" height="478.6196" style="stroke:none;stroke-width:1;" width="8" x="48" y="67.0679"/><rect fill="#F1E5E5" height="478.6196" style="stroke:none;stroke-width:1;" width="8" x="76" y="67.0679"/><rect fill="#F1E5E5" height="478.6196" style="stroke:none;stroke-width:1;" width="8" x="104" y="67.0679"/><rect fill="#F1E5E5" height="478.6196" style="stroke:none;stroke-width:1;" width="8" x="132" y="67.0679"/><rect fill="#F1E5E5" height="478.6196" style="stroke:none;stroke-width:1;" width="8" x="160" y="67.0679"/><rect fill="#F1E5E5" height="478.6196" style="stroke:none;stroke-width:1;" width="8" x="188" y="67.0679"/><rect fill="#F1E5E5" height="478.6196" style="stroke:none;stroke-width:1;" width="8" x="216" y="67.0679"/><rect fill="#F1E5E5" height="478.6196" style="stroke:none;stroke-width:1;" width="8" x="244" y="67.0679"/><rect fill="#F1E5E5" height="478.6196" style="stroke:none;stroke-width:1;" width="8" x="272" y="67.0679"/><rect fill="#F1E5E5" height="478.6196" style="stroke:none;stroke-width:1;" width="8" x="300" y="67.0679"/><rect fill="#F1E5E5" height="478.6196" style="stroke:none;stroke-width:1;" width="8" x="328" y="67.0679"/><rect fill="#F1E5E5" height="478.6196" style="stroke:none;stroke-width:1;" width="8" x="356" y="67.0679"/><rect fill="#F1E5E5" height="478.6196" style="stroke:none;stroke-width:1;" width="8" x="384" y="67.0679"/><rect fill="#F1E5E5" height="478.6196" style="stroke:none;stroke-width:1;" width="8" x="412" y="67.0679"/><rect fill="#F1E5E5" height="478.6196" style="stroke:none;stroke-width:1;" width="8" x="440" y="67.0679"/><rect fill="#F1E5E5" height="478.6196" style="stroke:none;stroke-width:1;" width="8" x="468" y="67.0679"/><text fill="#000000" font-family="sans-serif" font-size="10" lengthAdjust="spacing" textLength="11.44" x="5" y="66.7579">32</text><text fill="#000000" font-family="sans-serif" font-size="10" lengthAdjust="spacing" textLength="11.44" x="33" y="66.7579">33</text><text fill="#000000" font-family="sans-serif" font-size="10" lengthAdjust="spacing" textLength="11.44" x="61" y="66.7579">34</text><text fill="#000000" font-family="sans-serif" font-size="10" lengthAdjust="spacing" textLength="11.44" x="89" y="66.7579">35</text><text fill="#000000" font-family="sans-serif" font-size="10" lengthAdjust="spacing" textLength="11.44" x="117" y="66.7579">36</text><text fill="#000000" font-family="sans-serif" font-size="10" lengthAdjust="spacing" textLength="11.44" x="145" y="66.7579">37</text><text fill="#000000" font-family="sans-serif" font-size="10" lengthAdjust="spacing" textLength="11.44" x="173" y="66.7579">38</text><text fill="#000000" font-family="sans-serif" font-size="10" lengthAdjust="spacing" textLength="11.44" x="201" y="66.7579">39</text><text fill="#000000" font-family="sans-serif" font-size="10" lengthAdjust="spacing" textLength="11.44" x="229" y="66.7579">40</text><text fill="#000000" font-family="sans-serif" font-size="10" lengthAdjust="spacing" textLength="11.44" x="257" y="66.7579">41</text><text fill="#000000" font-family="sans-serif" font-size="10" lengthAdjust="spacing" textLength="11.44" x="285" y="66.7579">42</text><text fill="#000000" font-family="sans-serif" font-size="10" lengthAdjust="spacing" textLength="11.44" x="313" y="66.7579">43</text><text fill="#000000" font-family="sans-serif" font-size="10" lengthAdjust="spacing" textLength="11.44" x="341" y="66.7579">44</text><text fill="#000000" font-family="sans-serif" font-size="10" lengthAdjust="spacing" textLength="11.44" x="369" y="66.7579">45</text><text fill="#000000" font-family="sans-serif" font-size="10" lengthAdjust="spacing" textLength="11.44" x="397" y="66.7579">46</text><text fill="#000000" font-family="sans-serif" font-size="10" lengthAdjust="spacing" textLength="11.44" x="425" y="66.7579">47</text><text fill="#000000" font-family="sans-serif" font-size="10" lengthAdjust="spacing" textLength="11.44" x="453" y="66.7579">48</text><text fill="#000000" font-family="sans-serif" font-size="10" lengthAdjust="spacing" textLength="11.44" x="481" y="66.7579">49</text><line style="stroke:#C0C0C0;stroke-width:1;" x1="0" x2="0" y1="56.0679" y2="545.6876"/><line style="stroke:#C0C0C0;stroke-width:1;" x1="28" x2="28" y1="56.0679" y2="545.6876"/><line style="stroke:#C0C0C0;stroke-width:1;" x1="56" x2="56" y1="56.0679" y2="545.6876"/><line style="stroke:#C0C0C0;stroke-width:1;" x1="84" x2="84" y1="56.0679" y2="545.6876"/><line style="stroke:#C0C0C0;stroke-width:1;" x1="112" x2="112" y1="56.0679" y2="545.6876"/><line style="stroke:#C0C0C0;stroke-width:1;" x1="140" x2="140" y1="56.0679" y2="545.6876"/><line style="stroke:#C0C0C0;stroke-width:1;" x1="168" x2="168" y1="56.0679" y2="545.6876"/><line style="stroke:#C0C0C0;stroke-width:1;" x1="196" x2="196" y1="56.0679" y2="545.6876"/><line style="stroke:#C0C0C0;stroke-width:1;" x1="224" x2="224" y1="56.0679" y2="545.6876"/><line style="stroke:#C0C0C0;stroke-width:1;" x1="252" x2="252" y1="56.0679" y2="545.6876"/><line style="stroke:#C0C0C0;stroke-width:1;" x1="280" x2="280" y1="56.0679" y2="545.6876"/><line style="stroke:#C0C0C0;stroke-width:1;" x1="308" x2="308" y1="56.0679" y2="545.6876"/><line style="stroke:#C0C0C0;stroke-width:1;" x1="336" x2="336" y1="56.0679" y2="545.6876"/><line style="stroke:#C0C0C0;stroke-width:1;" x1="364" x2="364" y1="56.0679" y2="545.6876"/><line style="stroke:#C0C0C0;stroke-width:1;" x1="392" x2="392" y1="56.0679" y2="545.6876"/><line style="stroke:#C0C0C0;stroke-width:1;" x1="420" x2="420" y1="56.0679" y2="545.6876"/><line style="stroke:#C0C0C0;stroke-width:1;" x1="448" x2="448" y1="56.0679" y2="545.6876"/><line style="stroke:#C0C0C0;stroke-width:1;" x1="476" x2="476" y1="56.0679" y2="545.6876"/><line style="stroke:#C0C0C0;stroke-width:1;" x1="484" x2="484" y1="56.0679" y2="545.6876"/><line style="stroke:#C0C0C0;stroke-width:1;" x1="0" x2="0" y1="40.0679" y2="56.0679"/><line style="stroke:#C0C0C0;stroke-width:1;" x1="116" x2="116" y1="40.0679" y2="56.0679"/><text fill="#000000" font-family="sans-serif" font-size="12" font-weight="bold" lengthAdjust="spacing" textLength="54.3364" x="30.8318" y="52.896">Aug 2026</text><line style="stroke:#C0C0C0;stroke-width:1;" x1="236" x2="236" y1="40.0679" y2="56.0679"/><text fill="#000000" font-family="sans-serif" font-size="12" font-weight="bold" lengthAdjust="spacing" textLength="51.8764" x="150.0618" y="52.896">Sep 2026</text><line style="stroke:#C0C0C0;stroke-width:1;" x1="360" x2="360" y1="40.0679" y2="56.0679"/><text fill="#000000" font-family="sans-serif" font-size="12" font-weight="bold" lengthAdjust="spacing" textLength="51.5043" x="272.2478" y="52.896">Oct 2026</text><line style="stroke:#C0C0C0;stroke-width:1;" x1="484" x2="484" y1="40.0679" y2="56.0679"/><text fill="#000000" font-family="sans-serif" font-size="12" font-weight="bold" lengthAdjust="spacing" textLength="54.5884" x="394.7058" y="52.896">Nov 2026</text><line style="stroke:#C0C0C0;stroke-width:1;" x1="0" x2="484" y1="40.0679" y2="40.0679"/><line style="stroke:#C0C0C0;stroke-width:1;" x1="0" x2="484" y1="56.0679" y2="56.0679"/><line style="stroke:#C0C0C0;stroke-width:1;" x1="0" x2="484" y1="67.0679" y2="67.0679"/><path d="M56,191.9774 L56,203.4683 L61,203.4683" fill="none" style="stroke:#181818;stroke-width:1.5;"/><polygon fill="#181818" points="60,199.4683,64,203.4683,60,207.4683,60,199.4683" style="stroke:#181818;stroke-width:1;"/><path d="M140,210.9592 L140,241.4321 L145,241.4321" fill="none" style="stroke:#181818;stroke-width:1.5;"/><polygon fill="#181818" points="144,237.4321,148,241.4321,144,245.4321,144,237.4321" style="stroke:#181818;stroke-width:1;"/><path d="M140,210.9592 L140,260.414 L145,260.414" fill="none" style="stroke:#181818;stroke-width:1.5;"/><polygon fill="#181818" points="144,256.414,148,260.414,144,264.414,144,256.414" style="stroke:#181818;stroke-width:1;"/><path d="M172,267.9049 L172,279.3959 L177,279.3959" fill="none" style="stroke:#181818;stroke-width:1.5;"/><polygon fill="#181818" points="176,275.3959,180,279.3959,176,283.3959,176,275.3959" style="stroke:#181818;stroke-width:1;"/><path d="M180,248.923 L180,298.3777 L193,298.3777" fill="none" style="stroke:#181818;stroke-width:1.5;"/><polygon fill="#181818" points="192,294.3777,196,298.3777,192,302.3777,192,294.3777" style="stroke:#181818;stroke-width:1;"/><path d="M200,305.8687 L200,317.3596 L205,317.3596" fill="none" style="stroke:#181818;stroke-width:1.5;"/><polygon fill="#181818" points="204,313.3596,208,317.3596,204,321.3596,204,313.3596" style="stroke:#181818;stroke-width:1;"/><line style="stroke:#181818;stroke-width:1;" x1="0" x2="5" y1="84.5589" y2="84.5589"/><line style="stroke:#181818;stroke-width:1;" x1="116.5293" x2="483" y1="84.5589" y2="84.5589"/><rect fill="#F2DEDE" height="14.9819" style="stroke:none;stroke-width:1;" width="19" x="2" y="104.0498"/><path d="M20,119.0317 L2,119.0317 L2,104.0498 L20,104.0498" fill="none" style="stroke:#A94442;stroke-width:1;"/><rect fill="#F2DEDE" height="14.9819" style="stroke:none;stroke-width:1;" width="18" x="28" y="104.0498"/><path d="M28,104.0498 L46,104.0498 L46,119.0317 L28,119.0317" fill="none" style="stroke:#A94442;stroke-width:1;"/><line style="stroke:#A94442;stroke-width:1;stroke-dasharray:2,3;" x1="23" x2="25" y1="104.0498" y2="104.0498"/><line style="stroke:#A94442;stroke-width:1;stroke-dasharray:2,3;" x1="23" x2="25" y1="119.0317" y2="119.0317"/><rect fill="#F2DEDE" height="14.9819" style="stroke:none;stroke-width:1;" width="19" x="2" y="123.0317"/><path d="M20,138.0136 L2,138.0136 L2,123.0317 L20,123.0317" fill="none" style="stroke:#A94442;stroke-width:1;"/><rect fill="#F2DEDE" height="14.9819" style="stroke:none;stroke-width:1;" width="21" x="28" y="123.0317"/><line style="stroke:#A94442;stroke-width:1;" x1="28" x2="48" y1="123.0317" y2="123.0317"/><line style="stroke:#A94442;stroke-width:1;" x1="28" x2="48" y1="138.0136" y2="138.0136"/><rect fill="#F2DEDE" height="14.9819" style="stroke:none;stroke-width:1;" width="21" x="56" y="123.0317"/><line style="stroke:#A94442;stroke-width:1;" x1="56" x2="76" y1="123.0317" y2="123.0317"/><line style="stroke:#A94442;stroke-width:1;" x1="56" x2="76" y1="138.0136" y2="138.0136"/><rect fill="#F2DEDE" height="14.9819" style="stroke:none;stroke-width:1;" width="18" x="84" y="123.0317"/><path d="M84,123.0317 L102,123.0317 L102,138.0136 L84,138.0136" fill="none" style="stroke:#A94442;stroke-width:1;"/><line style="stroke:#A94442;stroke-width:1;stroke-dasharray:2,3;" x1="23" x2="25" y1="123.0317" y2="123.0317"/><line style="stroke:#A94442;stroke-width:1;stroke-dasharray:2,3;" x1="23" x2="25" y1="138.0136" y2="138.0136"/><line style="stroke:#A94442;stroke-width:1;stroke-dasharray:2,3;" x1="51" x2="53" y1="123.0317" y2="123.0317"/><line style="stroke:#A94442;stroke-width:1;stroke-dasharray:2,3;" x1="51" x2="53" y1="138.0136" y2="138.0136"/><line style="stroke:#A94442;stroke-width:1;stroke-dasharray:2,3;" x1="79" x2="81" y1="123.0317" y2="123.0317"/><line style="stroke:#A94442;stroke-width:1;stroke-dasharray:2,3;" x1="79" x2="81" y1="138.0136" y2="138.0136"/><line style="stroke:#181818;stroke-width:1;" x1="0" x2="5" y1="157.5045" y2="157.5045"/><line style="stroke:#181818;stroke-width:1;" x1="99.2594" x2="483" y1="157.5045" y2="157.5045"/><rect fill="#E2E2F0" height="14.9819" style="stroke:none;stroke-width:1;" width="19" x="2" y="176.9955"/><path d="M20,191.9774 L2,191.9774 L2,176.9955 L20,176.9955" fill="none" style="stroke:#181818;stroke-width:1;"/><rect fill="#E2E2F0" height="14.9819" style="stroke:none;stroke-width:1;" width="21" x="28" y="176.9955"/><line style="stroke:#181818;stroke-width:1;" x1="28" x2="48" y1="176.9955" y2="176.9955"/><line style="stroke:#181818;stroke-width:1;" x1="28" x2="48" y1="191.9774" y2="191.9774"/><rect fill="#E2E2F0" height="14.9819" style="stroke:none;stroke-width:1;" width="6" x="56" y="176.9955"/><path d="M56,176.9955 L62,176.9955 L62,191.9774 L56,191.9774" fill="none" style="stroke:#181818;stroke-width:1;"/><line style="stroke:#181818;stroke-width:1;stroke-dasharray:2,3;" x1="23" x2="25" y1="176.9955" y2="176.9955"/><line style="stroke:#181818;stroke-width:1;stroke-dasharray:2,3;" x1="23" x2="25" y1="191.9774" y2="191.9774"/><line style="stroke:#181818;stroke-width:1;stroke-dasharray:2,3;" x1="51" x2="53" y1="176.9955" y2="176.9955"/><line style="stroke:#181818;stroke-width:1;stroke-dasharray:2,3;" x1="51" x2="53" y1="191.9774" y2="191.9774"/><rect fill="#E2E2F0" height="14.9819" style="stroke:none;stroke-width:1;" width="11" x="66" y="195.9774"/><path d="M76,210.9592 L66,210.9592 L66,195.9774 L76,195.9774" fill="none" style="stroke:#181818;stroke-width:1;"/><rect fill="#E2E2F0" height="14.9819" style="stroke:none;stroke-width:1;" width="21" x="84" y="195.9774"/><line style="stroke:#181818;stroke-width:1;" x1="84" x2="104" y1="195.9774" y2="195.9774"/><line style="stroke:#181818;stroke-width:1;" x1="84" x2="104" y1="210.9592" y2="210.9592"/><rect fill="#E2E2F0" height="14.9819" style="stroke:none;stroke-width:1;" width="21" x="112" y="195.9774"/><line style="stroke:#181818;stroke-width:1;" x1="112" x2="132" y1="195.9774" y2="195.9774"/><line style="stroke:#181818;stroke-width:1;" x1="112" x2="132" y1="210.9592" y2="210.9592"/><rect fill="#E2E2F0" height="14.9819" style="stroke:none;stroke-width:1;" width="6" x="140" y="195.9774"/><path d="M140,195.9774 L146,195.9774 L146,210.9592 L140,210.9592" fill="none" style="stroke:#181818;stroke-width:1;"/><line style="stroke:#181818;stroke-width:1;stroke-dasharray:2,3;" x1="79" x2="81" y1="195.9774" y2="195.9774"/><line style="stroke:#181818;stroke-width:1;stroke-dasharray:2,3;" x1="79" x2="81" y1="210.9592" y2="210.9592"/><line style="stroke:#181818;stroke-width:1;stroke-dasharray:2,3;" x1="107" x2="109" y1="195.9774" y2="195.9774"/><line style="stroke:#181818;stroke-width:1;stroke-dasharray:2,3;" x1="107" x2="109" y1="210.9592" y2="210.9592"/><line style="stroke:#181818;stroke-width:1;stroke-dasharray:2,3;" x1="135" x2="137" y1="195.9774" y2="195.9774"/><line style="stroke:#181818;stroke-width:1;stroke-dasharray:2,3;" x1="135" x2="137" y1="210.9592" y2="210.9592"/><rect fill="#E2E2F0" height="14.9819" style="stroke:none;stroke-width:1;" width="19" x="58" y="214.9592"/><path d="M76,229.9411 L58,229.9411 L58,214.9592 L76,214.9592" fill="none" style="stroke:#181818;stroke-width:1;"/><rect fill="#E2E2F0" height="14.9819" style="stroke:none;stroke-width:1;" width="18" x="84" y="214.9592"/><path d="M84,214.9592 L102,214.9592 L102,229.9411 L84,229.9411" fill="none" style="stroke:#181818;stroke-width:1;"/><line style="stroke:#181818;stroke-width:1;stroke-dasharray:2,3;" x1="79" x2="81" y1="214.9592" y2="214.9592"/><line style="stroke:#181818;stroke-width:1;stroke-dasharray:2,3;" x1="79" x2="81" y1="229.9411" y2="229.9411"/><rect fill="#E2E2F0" height="14.9819" style="stroke:none;stroke-width:1;" width="11" x="150" y="233.9411"/><path d="M160,248.923 L150,248.923 L150,233.9411 L160,233.9411" fill="none" style="stroke:#181818;stroke-width:1;"/><rect fill="#E2E2F0" height="14.9819" style="stroke:none;stroke-width:1;" width="18" x="168" y="233.9411"/><path d="M168,233.9411 L186,233.9411 L186,248.923 L168,248.923" fill="none" style="stroke:#181818;stroke-width:1;"/><line style="stroke:#181818;stroke-width:1;stroke-dasharray:2,3;" x1="163" x2="165" y1="233.9411" y2="233.9411"/><line style="stroke:#181818;stroke-width:1;stroke-dasharray:2,3;" x1="163" x2="165" y1="248.923" y2="248.923"/><rect fill="#E2E2F0" height="14.9819" style="stroke:none;stroke-width:1;" width="11" x="150" y="252.923"/><path d="M160,267.9049 L150,267.9049 L150,252.923 L160,252.923" fill="none" style="stroke:#181818;stroke-width:1;"/><rect fill="#E2E2F0" height="14.9819" style="stroke:none;stroke-width:1;" width="10" x="168" y="252.923"/><path d="M168,252.923 L178,252.923 L178,267.9049 L168,267.9049" fill="none" style="stroke:#181818;stroke-width:1;"/><line style="stroke:#181818;stroke-width:1;stroke-dasharray:2,3;" x1="163" x2="165" y1="252.923" y2="252.923"/><line style="stroke:#181818;stroke-width:1;stroke-dasharray:2,3;" x1="163" x2="165" y1="267.9049" y2="267.9049"/><rect fill="#E2E2F0" height="14.9819" style="stroke:none;stroke-width:1;" width="7" x="182" y="271.9049"/><path d="M188,286.8868 L182,286.8868 L182,271.9049 L188,271.9049" fill="none" style="stroke:#181818;stroke-width:1;"/><rect fill="#E2E2F0" height="14.9819" style="stroke:none;stroke-width:1;" width="10" x="196" y="271.9049"/><path d="M196,271.9049 L206,271.9049 L206,286.8868 L196,286.8868" fill="none" style="stroke:#181818;stroke-width:1;"/><line style="stroke:#181818;stroke-width:1;stroke-dasharray:2,3;" x1="191" x2="193" y1="271.9049" y2="271.9049"/><line style="stroke:#181818;stroke-width:1;stroke-dasharray:2,3;" x1="191" x2="193" y1="286.8868" y2="286.8868"/><rect fill="#E2E2F0" height="14.9819" style="stroke:none;stroke-width:1;" width="8" x="198" y="290.8868"/><rect fill="none" height="14.9819" style="stroke:#181818;stroke-width:1;" width="8" x="198" y="290.8868"/><rect fill="#E2E2F0" height="14.9819" style="stroke:none;stroke-width:1;" width="7" x="210" y="309.8687"/><path d="M216,324.8506 L210,324.8506 L210,309.8687 L216,309.8687" fill="none" style="stroke:#181818;stroke-width:1;"/><rect fill="#E2E2F0" height="14.9819" style="stroke:none;stroke-width:1;" width="10" x="224" y="309.8687"/><path d="M224,309.8687 L234,309.8687 L234,324.8506 L224,324.8506" fill="none" style="stroke:#181818;stroke-width:1;"/><line style="stroke:#181818;stroke-width:1;stroke-dasharray:2,3;" x1="219" x2="221" y1="309.8687" y2="309.8687"/><line style="stroke:#181818;stroke-width:1;stroke-dasharray:2,3;" x1="219" x2="221" y1="324.8506" y2="324.8506"/><polygon fill="#A94442" points="234,328.8506,239,333.8506,234,338.8506,229,333.8506" style="stroke:#A94442;stroke-width:1;"/><line style="stroke:#181818;stroke-width:1;" x1="0" x2="5" y1="363.3234" y2="363.3234"/><line style="stroke:#181818;stroke-width:1;" x1="68.6796" x2="483" y1="363.3234" y2="363.3234"/><rect fill="#E2E2F0" height="14.9819" style="stroke:none;stroke-width:1;" width="7" x="238" y="382.8143"/><path d="M244,397.7962 L238,397.7962 L238,382.8143 L244,382.8143" fill="none" style="stroke:#181818;stroke-width:1;"/><rect fill="#E2E2F0" height="14.9819" style="stroke:none;stroke-width:1;" width="21" x="252" y="382.8143"/><line style="stroke:#181818;stroke-width:1;" x1="252" x2="272" y1="382.8143" y2="382.8143"/><line style="stroke:#181818;stroke-width:1;" x1="252" x2="272" y1="397.7962" y2="397.7962"/><rect fill="#E2E2F0" height="14.9819" style="stroke:none;stroke-width:1;" width="18" x="280" y="382.8143"/><path d="M280,382.8143 L298,382.8143 L298,397.7962 L280,397.7962" fill="none" style="stroke:#181818;stroke-width:1;"/><line style="stroke:#181818;stroke-width:1;stroke-dasharray:2,3;" x1="247" x2="249" y1="382.8143" y2="382.8143"/><line style="stroke:#181818;stroke-width:1;stroke-dasharray:2,3;" x1="247" x2="249" y1="397.7962" y2="397.7962"/><line style="stroke:#181818;stroke-width:1;stroke-dasharray:2,3;" x1="275" x2="277" y1="382.8143" y2="382.8143"/><line style="stroke:#181818;stroke-width:1;stroke-dasharray:2,3;" x1="275" x2="277" y1="397.7962" y2="397.7962"/><rect fill="#E2E2F0" height="14.9819" style="stroke:none;stroke-width:1;" width="7" x="238" y="401.7962"/><path d="M244,416.7781 L238,416.7781 L238,401.7962 L244,401.7962" fill="none" style="stroke:#181818;stroke-width:1;"/><rect fill="#E2E2F0" height="14.9819" style="stroke:none;stroke-width:1;" width="21" x="252" y="401.7962"/><line style="stroke:#181818;stroke-width:1;" x1="252" x2="272" y1="401.7962" y2="401.7962"/><line style="stroke:#181818;stroke-width:1;" x1="252" x2="272" y1="416.7781" y2="416.7781"/><rect fill="#E2E2F0" height="14.9819" style="stroke:none;stroke-width:1;" width="18" x="280" y="401.7962"/><path d="M280,401.7962 L298,401.7962 L298,416.7781 L280,416.7781" fill="none" style="stroke:#181818;stroke-width:1;"/><line style="stroke:#181818;stroke-width:1;stroke-dasharray:2,3;" x1="247" x2="249" y1="401.7962" y2="401.7962"/><line style="stroke:#181818;stroke-width:1;stroke-dasharray:2,3;" x1="247" x2="249" y1="416.7781" y2="416.7781"/><line style="stroke:#181818;stroke-width:1;stroke-dasharray:2,3;" x1="275" x2="277" y1="401.7962" y2="401.7962"/><line style="stroke:#181818;stroke-width:1;stroke-dasharray:2,3;" x1="275" x2="277" y1="416.7781" y2="416.7781"/><rect fill="#E2E2F0" height="14.9819" style="stroke:none;stroke-width:1;" width="19" x="310" y="420.7781"/><path d="M328,435.76 L310,435.76 L310,420.7781 L328,420.7781" fill="none" style="stroke:#181818;stroke-width:1;"/><rect fill="#E2E2F0" height="14.9819" style="stroke:none;stroke-width:1;" width="18" x="336" y="420.7781"/><path d="M336,420.7781 L354,420.7781 L354,435.76 L336,435.76" fill="none" style="stroke:#181818;stroke-width:1;"/><line style="stroke:#181818;stroke-width:1;stroke-dasharray:2,3;" x1="331" x2="333" y1="420.7781" y2="420.7781"/><line style="stroke:#181818;stroke-width:1;stroke-dasharray:2,3;" x1="331" x2="333" y1="435.76" y2="435.76"/><line style="stroke:#181818;stroke-width:1;" x1="0" x2="5" y1="455.251" y2="455.251"/><line style="stroke:#181818;stroke-width:1;" x1="76.7426" x2="483" y1="455.251" y2="455.251"/><polygon fill="#A94442" points="366,474.7419,371,479.7419,366,484.7419,361,479.7419" style="stroke:#A94442;stroke-width:1;"/><line style="stroke:#181818;stroke-width:1;" x1="0" x2="5" y1="509.2147" y2="509.2147"/><line style="stroke:#181818;stroke-width:1;" x1="73.4426" x2="483" y1="509.2147" y2="509.2147"/><rect fill="#E2E2F0" height="14.9819" style="stroke:none;stroke-width:1;" width="19" x="366" y="528.7057"/><path d="M384,543.6876 L366,543.6876 L366,528.7057 L384,528.7057" fill="none" style="stroke:#181818;stroke-width:1;"/><rect fill="#E2E2F0" height="14.9819" style="stroke:none;stroke-width:1;" width="21" x="392" y="528.7057"/><line style="stroke:#181818;stroke-width:1;" x1="392" x2="412" y1="528.7057" y2="528.7057"/><line style="stroke:#181818;stroke-width:1;" x1="392" x2="412" y1="543.6876" y2="543.6876"/><rect fill="#E2E2F0" height="14.9819" style="stroke:none;stroke-width:1;" width="21" x="420" y="528.7057"/><line style="stroke:#181818;stroke-width:1;" x1="420" x2="440" y1="528.7057" y2="528.7057"/><line style="stroke:#181818;stroke-width:1;" x1="420" x2="440" y1="543.6876" y2="543.6876"/><rect fill="#E2E2F0" height="14.9819" style="stroke:none;stroke-width:1;" width="21" x="448" y="528.7057"/><line style="stroke:#181818;stroke-width:1;" x1="448" x2="468" y1="528.7057" y2="528.7057"/><line style="stroke:#181818;stroke-width:1;" x1="448" x2="468" y1="543.6876" y2="543.6876"/><rect fill="#E2E2F0" height="14.9819" style="stroke:none;stroke-width:1;" width="6" x="476" y="528.7057"/><path d="M476,528.7057 L482,528.7057 L482,543.6876 L476,543.6876" fill="none" style="stroke:#181818;stroke-width:1;"/><line style="stroke:#181818;stroke-width:1;stroke-dasharray:2,3;" x1="387" x2="389" y1="528.7057" y2="528.7057"/><line style="stroke:#181818;stroke-width:1;stroke-dasharray:2,3;" x1="387" x2="389" y1="543.6876" y2="543.6876"/><line style="stroke:#181818;stroke-width:1;stroke-dasharray:2,3;" x1="415" x2="417" y1="528.7057" y2="528.7057"/><line style="stroke:#181818;stroke-width:1;stroke-dasharray:2,3;" x1="415" x2="417" y1="543.6876" y2="543.6876"/><line style="stroke:#181818;stroke-width:1;stroke-dasharray:2,3;" x1="443" x2="445" y1="528.7057" y2="528.7057"/><line style="stroke:#181818;stroke-width:1;stroke-dasharray:2,3;" x1="443" x2="445" y1="543.6876" y2="543.6876"/><line style="stroke:#181818;stroke-width:1;stroke-dasharray:2,3;" x1="471" x2="473" y1="528.7057" y2="528.7057"/><line style="stroke:#181818;stroke-width:1;stroke-dasharray:2,3;" x1="471" x2="473" y1="543.6876" y2="543.6876"/><text fill="#000000" font-family="sans-serif" font-size="11" lengthAdjust="spacing" textLength="101.5293" x="10" y="88.8268">Asks to Other Team</text><text fill="#000000" font-family="sans-serif" font-size="11" lengthAdjust="spacing" textLength="172.6438" x="50" y="115.8087">Draft contract (DDL, TDS, sample)</text><text fill="#000000" font-family="sans-serif" font-size="11" lengthAdjust="spacing" textLength="99.1753" x="106" y="134.7906">Masked sample file</text><text fill="#000000" font-family="sans-serif" font-size="11" lengthAdjust="spacing" textLength="84.2594" x="10" y="161.7725">Our Team (MVP)</text><text fill="#000000" font-family="sans-serif" font-size="11" lengthAdjust="spacing" textLength="111.6052" x="66" y="188.7544">TDS + JSON extension</text><text fill="#000000" font-family="sans-serif" font-size="11" lengthAdjust="spacing" textLength="119.0631" x="150" y="207.7363">Transformation engine</text><text fill="#000000" font-family="sans-serif" font-size="11" lengthAdjust="spacing" textLength="91.4203" x="106" y="226.7182">Synthetic harness</text><text fill="#000000" font-family="sans-serif" font-size="11" lengthAdjust="spacing" textLength="131.3831" x="190" y="245.7">Rejects + balancing recon</text><text fill="#000000" font-family="sans-serif" font-size="11" lengthAdjust="spacing" textLength="104.8843" x="182" y="264.6819">Kafka producer stub</text><text fill="#000000" font-family="sans-serif" font-size="11" lengthAdjust="spacing" textLength="123.5841" x="210" y="283.6638">Throughput benchmark</text><text fill="#000000" font-family="sans-serif" font-size="11" lengthAdjust="spacing" textLength="171.7858" x="210" y="302.6457">2nd mapping (extensibility proof)</text><text fill="#000000" font-family="sans-serif" font-size="11" lengthAdjust="spacing" textLength="115.6421" x="238" y="321.6276">Buffer + demo dry-run</text><text fill="#000000" font-family="sans-serif" font-size="11" lengthAdjust="spacing" textLength="112.1992" x="242" y="340.6095">MVP demo (synthetic)</text><text fill="#000000" font-family="sans-serif" font-size="11" lengthAdjust="spacing" textLength="53.6796" x="10" y="367.5914">hardening</text><text fill="#000000" font-family="sans-serif" font-size="11" lengthAdjust="spacing" textLength="152.8769" x="302" y="394.5733">Restartability + checkpointing</text><text fill="#000000" font-family="sans-serif" font-size="11" lengthAdjust="spacing" textLength="136.454" x="302" y="413.5551">Delta / incremental design</text><text fill="#000000" font-family="sans-serif" font-size="11" lengthAdjust="spacing" textLength="144.33" x="358" y="432.537">Contract adapter hardening</text><text fill="#000000" font-family="sans-serif" font-size="11" lengthAdjust="spacing" textLength="61.7426" x="10" y="459.5189">Other Team</text><text fill="#000000" font-family="sans-serif" font-size="11" lengthAdjust="spacing" textLength="114.4102" x="374" y="486.5008">Real data &amp; structures</text><text fill="#000000" font-family="sans-serif" font-size="11" lengthAdjust="spacing" textLength="58.4426" x="10" y="513.4827">Integration</text><text fill="#000000" font-family="sans-serif" font-size="11" lengthAdjust="spacing" textLength="97.2283" x="370" y="540.4646">Wire real contracts</text><line style="stroke:#C0C0C0;stroke-width:1;" x1="0" x2="484" y1="545.6876" y2="545.6876"/><line style="stroke:#C0C0C0;stroke-width:1;" x1="0" x2="0" y1="545.6876" y2="561.6876"/><line style="stroke:#C0C0C0;stroke-width:1;" x1="116" x2="116" y1="545.6876" y2="561.6876"/><text fill="#000000" font-family="sans-serif" font-size="12" font-weight="bold" lengthAdjust="spacing" textLength="54.3364" x="30.8318" y="558.5157">Aug 2026</text><line style="stroke:#C0C0C0;stroke-width:1;" x1="236" x2="236" y1="545.6876" y2="561.6876"/><text fill="#000000" font-family="sans-serif" font-size="12" font-weight="bold" lengthAdjust="spacing" textLength="51.8764" x="150.0618" y="558.5157">Sep 2026</text><line style="stroke:#C0C0C0;stroke-width:1;" x1="360" x2="360" y1="545.6876" y2="561.6876"/><text fill="#000000" font-family="sans-serif" font-size="12" font-weight="bold" lengthAdjust="spacing" textLength="51.5043" x="272.2478" y="558.5157">Oct 2026</text><line style="stroke:#C0C0C0;stroke-width:1;" x1="484" x2="484" y1="545.6876" y2="561.6876"/><text fill="#000000" font-family="sans-serif" font-size="12" font-weight="bold" lengthAdjust="spacing" textLength="54.5884" x="394.7058" y="558.5157">Nov 2026</text><line style="stroke:#C0C0C0;stroke-width:1;" x1="0" x2="484" y1="561.6876" y2="561.6876"/><!--SRC=[xLTDSzf84BtFh-YgLCLGZemaOw_jGyf9SBQMcE0os7jmxM6GMZ11cb7cWrt-VLeWoGI4xSCUkQcar_rUVvUkZUNQJhcqbXt1NKeF3uDRm9zEB7YAqe9A85QHwGYPEsiwiU1JpJFJyRkU5HccGk99biNC2fiY31xle3N2tBR1-mWphcEKGawXDOpMhuIqI0wiK19QtzMYpTYTLZymih2IOY3qmtFFl_3yKsQuTJhcI-0Q8KgLmPWP9xVUi5oJLnEHNlWNSPuk6VCy-6Jc1go2ePsXXZ7o33oFFVKqJon4IbhDYRJLwzr-W75lz04Cp_8Ks_z0oWtf27mW8lCcYrtfRx4IXhwdIcDCQO5tIHXZZ9rt_BBRxOQCFGsucTEtDHuIaMAbBQoqDK4Qn3J1Nc6d30vTcRSMbRMzoXu50CVG7ms_0_vdKHggOvsmi1JL3DgLHKZDfKcKpjODWN9AxLJxEwlyDQDAXzn2C-EH8IYrnzDeAQa7h8YAXfHep4w96n1RSeC_oD4z5ergY6h2QLIYehCrHiyfk2ZzlG3SLDqOLotx6q_c77AjOXTH1nlh9XNFUSdJ27axmtYcbPlEQB1XWZAQPLpFAuew-OsO3Ouc3JL3A6F8U9wlTa1Pceb8XLqM5Ygff-sqf7k3mGRt_ZpN2Zwx925Pnn1ZfY3MIqyxkHta7j06q-kwQiPY1wxyj4pLLgHwHiPaL3RKfNVgxqDk3UR6G3xlqs8Mxt6bZvSoZY6QOJJF5Ir3WknCvMlmpOOFVCyFA9GUffP3XtH46ZCw1pmbmKPCTuV-9MYJwo_LPkGnpoqblmvkPpfVWcwv3YxNc-ltdN-FXHXE-jwJWNOHdHKqMpK90iyFzsFtL-MlZPDMiFqjw3Rfmasr_Uk54rRPQiJy5ijApJLrrFeui-kDItsujOTRUxYrXrjxkBM7MtkujV__hQt_WnUeY_K6mGa1pqwwhH7rPzz922yWw5xvbrVX6TpSZCQ5exCsQ_rvTmj6EHqXn8924XDNQ6spFbzmk7Uo-6U-WY6bej_xLhs06xaGMicYbAp_E7W6d7UzpyB223L9WSS1ws72NMh98b8nLUKA7iPVlGjso-NKyIdvHic-AFAhb_Hjz0i0]--></g></svg>