<svg xmlns="http://www.w3.org/2000/svg" xmlns:xlink="http://www.w3.org/1999/xlink" contentStyleType="text/css" data-diagram-type="DESCRIPTION" height="1203px" preserveAspectRatio="none" style="width:644px;height:1203px;background:#FFFFFF;" version="1.1" viewBox="0 0 644 1203" width="644px" zoomAndPan="magnify"><defs/><g><!--cluster E--><g class="cluster" data-entity="E" data-source-line="14" data-uid="ent0002" id="cluster_E"><rect fill="#FDF6F6" height="263" rx="2.5" ry="2.5" style="stroke:#181818;stroke-width:1;" width="184" x="14" y="4"/><text fill="#1B1B1B" font-family="sans-serif" font-size="14" font-weight="bold" lengthAdjust="spacing" textLength="168.6293" x="21.6853" y="20.9659">Extraction (Other Team)</text></g><!--cluster TR--><g class="cluster" data-entity="TR" data-source-line="20" data-uid="ent0006" id="cluster_TR"><rect fill="#F5FBF5" height="829" rx="2.5" ry="2.5" style="stroke:#181818;stroke-width:1;" width="375" x="206" y="176"/><text fill="#1B1B1B" font-family="sans-serif" font-size="14" font-weight="bold" lengthAdjust="spacing" textLength="341.9907" x="222.5046" y="192.9659">Transformation + Reconciliation (Our Team, GCP)</text></g><!--cluster L--><g class="cluster" data-entity="L" data-source-line="33" data-uid="ent0017" id="cluster_L"><rect fill="#FDF6F6" height="173" rx="2.5" ry="2.5" style="stroke:#181818;stroke-width:1;" width="146" x="409" y="1024"/><text fill="#1B1B1B" font-family="sans-serif" font-size="14" font-weight="bold" lengthAdjust="spacing" textLength="130.2975" x="416.8512" y="1040.9659">Load (Other Team)</text></g><!--entity MF--><g class="entity" data-entity="MF" data-source-line="15" data-uid="ent0003" id="entity_MF"><rect fill="#F2DEDE" height="39.0679" rx="2.5" ry="2.5" style="stroke:#181818;stroke-width:0.5;" width="92.2537" x="89" y="34"/><text fill="#1B1B1B" font-family="sans-serif" font-size="14" lengthAdjust="spacing" textLength="72.2537" x="99" y="58.9659">Mainframe</text></g><!--entity XA--><g class="entity" data-entity="XA" data-source-line="16" data-uid="ent0004" id="entity_XA"><rect fill="#F2DEDE" height="39.0679" rx="2.5" ry="2.5" style="stroke:#181818;stroke-width:0.5;" width="109.7117" x="80" y="110"/><text fill="#1B1B1B" font-family="sans-serif" font-size="14" lengthAdjust="spacing" textLength="89.7117" x="90" y="134.9659">Extractor App</text></g><!--entity FS1--><g class="entity" data-entity="FS1" data-source-line="17" data-uid="ent0005" id="entity_FS1"><path d="M90.5,221 C90.5,211 139.1889,211 139.1889,211 C139.1889,211 187.8777,211 187.8777,221 L187.8777,249.0679 C187.8777,259.0679 139.1889,259.0679 139.1889,259.0679 C139.1889,259.0679 90.5,259.0679 90.5,249.0679 L90.5,221" fill="#FCF8E3" style="stroke:#8A6D3B;stroke-width:0.5;"/><path d="M90.5,221 C90.5,231 139.1889,231 139.1889,231 C139.1889,231 187.8777,231 187.8777,221" fill="none" style="stroke:#8A6D3B;stroke-width:0.5;"/><text fill="#1B1B1B" font-family="sans-serif" font-size="14" lengthAdjust="spacing" textLength="77.3777" x="100.5" y="249.9659">File Storage</text></g><!--entity FP--><g class="entity" data-entity="FP" data-source-line="21" data-uid="ent0007" id="entity_FP"><rect fill="#DFF0D8" height="58.1358" rx="2.5" ry="2.5" style="stroke:#181818;stroke-width:0.5;" width="111.0277" x="401.5" y="321"/><text fill="#1B1B1B" font-family="sans-serif" font-size="14" lengthAdjust="spacing" textLength="58.8838" x="427.5719" y="345.9659">Dataflow</text><text fill="#1B1B1B" font-family="sans-serif" font-size="14" lengthAdjust="spacing" textLength="91.0277" x="411.5" y="365.0339">File Processor</text></g><!--entity BQ1--><g class="entity" data-entity="BQ1" data-source-line="22" data-uid="ent0008" id="entity_BQ1"><path d="M348,446 C348,436 391.1939,436 391.1939,436 C391.1939,436 434.3878,436 434.3878,446 L434.3878,493.1358 C434.3878,503.1358 391.1939,503.1358 391.1939,503.1358 C391.1939,503.1358 348,503.1358 348,493.1358 L348,446" fill="#FCF8E3" style="stroke:#8A6D3B;stroke-width:0.5;"/><path d="M348,446 C348,456 391.1939,456 391.1939,456 C391.1939,456 434.3878,456 434.3878,446" fill="none" style="stroke:#8A6D3B;stroke-width:0.5;"/><text fill="#1B1B1B" font-family="sans-serif" font-size="14" lengthAdjust="spacing" textLength="61.7258" x="360.331" y="474.9659">BigQuery</text><text fill="#1B1B1B" font-family="sans-serif" font-size="14" lengthAdjust="spacing" textLength="66.3878" x="358" y="494.0339">Extraction</text></g><!--entity DF--><g class="entity" data-entity="DF" data-source-line="23" data-uid="ent0009" id="entity_DF"><rect fill="#DFF0D8" height="58.1358" rx="2.5" ry="2.5" style="stroke:#181818;stroke-width:0.5;" width="152.1735" x="285" y="560"/><text fill="#1B1B1B" font-family="sans-serif" font-size="14" lengthAdjust="spacing" textLength="63.1398" x="329.5169" y="584.9659">Dataform</text><text fill="#1B1B1B" font-family="sans-serif" font-size="14" lengthAdjust="spacing" textLength="132.1735" x="295" y="604.0339">SQL Transformation</text></g><!--entity BQ2--><g class="entity" data-entity="BQ2" data-source-line="24" data-uid="ent0010" id="entity_BQ2"><path d="M310.5,665 C310.5,655 371.7888,655 371.7888,655 C371.7888,655 433.0776,655 433.0776,665 L433.0776,712.1358 C433.0776,722.1358 371.7888,722.1358 371.7888,722.1358 C371.7888,722.1358 310.5,722.1358 310.5,712.1358 L310.5,665" fill="#FCF8E3" style="stroke:#8A6D3B;stroke-width:0.5;"/><path d="M310.5,665 C310.5,675 371.7888,675 371.7888,675 C371.7888,675 433.0776,675 433.0776,665" fill="none" style="stroke:#8A6D3B;stroke-width:0.5;"/><text fill="#1B1B1B" font-family="sans-serif" font-size="14" lengthAdjust="spacing" textLength="61.7258" x="340.9259" y="693.9659">BigQuery</text><text fill="#1B1B1B" font-family="sans-serif" font-size="14" lengthAdjust="spacing" textLength="102.5776" x="320.5" y="713.0339">Transformation</text></g><!--entity EN--><g class="entity" data-entity="EN" data-source-line="25" data-uid="ent0011" id="entity_EN"><rect fill="#DFF0D8" height="58.1358" rx="2.5" ry="2.5" style="stroke:#181818;stroke-width:0.5;" width="130.5156" x="342.5" y="759"/><text fill="#1B1B1B" font-family="sans-serif" font-size="14" lengthAdjust="spacing" textLength="58.8838" x="378.3159" y="783.9659">Dataflow</text><text fill="#1B1B1B" font-family="sans-serif" font-size="14" lengthAdjust="spacing" textLength="110.5156" x="352.5" y="803.0339">Data Enrichment</text></g><!--entity JP--><g class="entity" data-entity="JP" data-source-line="26" data-uid="ent0012" id="entity_JP"><rect fill="#DFF0D8" height="58.1358" rx="2.5" ry="2.5" style="stroke:#181818;stroke-width:0.5;" width="117.1036" x="412.5" y="854"/><text fill="#1B1B1B" font-family="sans-serif" font-size="14" lengthAdjust="spacing" textLength="58.8838" x="441.6099" y="878.9659">Dataflow</text><text fill="#1B1B1B" font-family="sans-serif" font-size="14" lengthAdjust="spacing" textLength="97.1036" x="422.5" y="898.0339">JSON Producer</text></g><!--entity FS2--><g class="entity" data-entity="FS2" data-source-line="27" data-uid="ent0013" id="entity_FS2"><path d="M420.5,959 C420.5,949 471.0089,949 471.0089,949 C471.0089,949 521.5177,949 521.5177,959 L521.5177,987.0679 C521.5177,997.0679 471.0089,997.0679 471.0089,997.0679 C471.0089,997.0679 420.5,997.0679 420.5,987.0679 L420.5,959" fill="#FCF8E3" style="stroke:#8A6D3B;stroke-width:0.5;"/><path d="M420.5,959 C420.5,969 471.0089,969 471.0089,969 C471.0089,969 521.5177,969 521.5177,959" fill="none" style="stroke:#8A6D3B;stroke-width:0.5;"/><text fill="#1B1B1B" font-family="sans-serif" font-size="14" lengthAdjust="spacing" textLength="77.3777" x="430.5" y="987.9659">File Storage</text></g><!--entity CC--><g class="entity" data-entity="CC" data-source-line="28" data-uid="ent0014" id="entity_CC"><rect fill="#DFF0D8" height="39.0679" rx="2.5" ry="2.5" style="stroke:#181818;stroke-width:0.5;" width="129.7036" x="443" y="215.5"/><text fill="#1B1B1B" font-family="sans-serif" font-size="14" lengthAdjust="spacing" textLength="109.7036" x="453" y="240.4659">Cloud Composer</text></g><!--entity RS--><g class="entity" data-entity="RS" data-source-line="29" data-uid="ent0015" id="entity_RS"><rect fill="#DFF0D8" height="58.1358" rx="2.5" ry="2.5" style="stroke:#181818;stroke-width:0.5;" width="111.6436" x="243" y="206"/><text fill="#1B1B1B" font-family="sans-serif" font-size="14" lengthAdjust="spacing" textLength="91.6436" x="253" y="230.9659">Reconciliation</text><text fill="#1B1B1B" font-family="sans-serif" font-size="14" lengthAdjust="spacing" textLength="53.4098" x="272.1169" y="250.0339">Services</text></g><!--entity RPT--><g class="entity" data-entity="RPT" data-source-line="30" data-uid="ent0016" id="entity_RPT"><rect fill="#DFF0D8" height="58.1358" rx="2.5" ry="2.5" style="stroke:#181818;stroke-width:0.5;" width="169.4354" x="214.5" y="321"/><text fill="#1B1B1B" font-family="sans-serif" font-size="14" lengthAdjust="spacing" textLength="79.0437" x="259.6959" y="345.9659">Migrability /</text><text fill="#1B1B1B" font-family="sans-serif" font-size="14" lengthAdjust="spacing" textLength="149.4354" x="224.5" y="365.0339">Reconciliability reports</text></g><!--entity LA--><g class="entity" data-entity="LA" data-source-line="34" data-uid="ent0018" id="entity_LA"><rect fill="#F2DEDE" height="39.0679" rx="2.5" ry="2.5" style="stroke:#181818;stroke-width:0.5;" width="95.7537" x="423" y="1054"/><text fill="#1B1B1B" font-family="sans-serif" font-size="14" lengthAdjust="spacing" textLength="75.7537" x="433" y="1078.9659">Loader App</text></g><!--entity VC--><g class="entity" data-entity="VC" data-source-line="35" data-uid="ent0019" id="entity_VC"><rect fill="#F2DEDE" height="39.0679" rx="2.5" ry="2.5" style="stroke:#181818;stroke-width:0.5;" width="114.1917" x="417" y="1150"/><text fill="#1B1B1B" font-family="sans-serif" font-size="14" lengthAdjust="spacing" textLength="94.1917" x="427" y="1174.9659">Target System</text></g><g class="link" data-entity-1="MF" data-entity-2="XA" data-uid="lnk20" id="link_MF_XA"><polygon fill="#181818" points="135,109.8326,139,100.8326,135,104.8326,131,100.8326,135,109.8326" style="stroke:#181818;stroke-width:1;"/><path d="M135,73.1733 C135,84.3912 135,92.6159 135,103.8326" fill="none" style="stroke:#181818;stroke-width:1;"/></g><g class="link" data-entity-1="XA" data-entity-2="FS1" data-uid="lnk21" id="link_XA_FS1"><polygon fill="#181818" points="138.1091,210.9476,141.7585,201.7999,137.916,205.9514,133.7645,202.1088,138.1091,210.9476" style="stroke:#181818;stroke-width:1;"/><path d="M135.7151,149.0037 C136.3848,166.331 137.156,186.286 137.8774,204.9521" fill="none" style="stroke:#181818;stroke-width:1;"/></g><g class="link" data-entity-1="FS1" data-entity-2="FP" data-uid="lnk22" id="link_FS1_FP"><polygon fill="#181818" points="401.3335,324.1106,394.384,317.1318,396.6706,322.3059,391.4965,324.5924,401.3335,324.1106" style="stroke:#181818;stroke-width:1;"/><path d="M183.294,259.039 C189.4983,261.899 195.8544,264.6417 202,267 C284.3607,298.6045 309.9511,291.251 393,321 C395.7402,321.9816 392.9336,320.8595 395.738,321.9449" fill="none" style="stroke:#181818;stroke-width:1;"/></g><g class="link" data-entity-1="FP" data-entity-2="BQ1" data-uid="lnk23" id="link_FP_BQ1"><polygon fill="#181818" points="409.4882,435.5854,417.3833,429.6974,411.9369,431.226,410.4083,425.7796,409.4882,435.5854" style="stroke:#181818;stroke-width:1;"/><path d="M441.1914,379.1442 C431.6574,396.1175 422.4058,412.5881 412.4266,430.3541" fill="none" style="stroke:#181818;stroke-width:1;"/></g><g class="link" data-entity-1="BQ1" data-entity-2="DF" data-uid="lnk24" id="link_BQ1_DF"><polygon fill="#181818" points="368.1923,559.8301,374.2944,552.0994,369.4292,554.9856,366.5431,550.1203,368.1923,559.8301" style="stroke:#181818;stroke-width:1;"/><path d="M382.6433,503.2303 C378.1009,521.0214 374.0242,536.9884 369.6766,554.0166" fill="none" style="stroke:#181818;stroke-width:1;"/></g><g class="link" data-entity-1="DF" data-entity-2="BQ2" data-uid="lnk25" id="link_DF_BQ2"><polygon fill="#181818" points="368.3214,654.8941,371.2872,645.5024,367.7608,649.9256,363.3376,646.3993,368.3214,654.8941" style="stroke:#181818;stroke-width:1;"/><path d="M364.1817,618.201 C365.4761,629.6742 366.3075,637.0439 367.6487,648.9319" fill="none" style="stroke:#181818;stroke-width:1;"/></g><g class="link" data-entity-1="BQ2" data-entity-2="EN" data-uid="lnk26" id="link_BQ2_EN"><polygon fill="#181818" points="397.5703,758.7529,398.2053,748.9246,395.8384,754.0625,390.7006,751.6956,397.5703,758.7529" style="stroke:#181818;stroke-width:1;"/><path d="M384.0876,722.2373 C388.4589,734.0762 391.2753,741.7038 395.4921,753.1244" fill="none" style="stroke:#181818;stroke-width:1;"/></g><g class="link" data-entity-1="EN" data-entity-2="JP" data-uid="lnk27" id="link_EN_JP"><polygon fill="#181818" points="451.9918,853.9403,450.2558,844.2456,449.1875,849.8007,443.6325,848.7324,451.9918,853.9403" style="stroke:#181818;stroke-width:1;"/><path d="M427.073,817.1554 C434.9681,828.8101 440.7384,837.3282 448.6267,848.9727" fill="none" style="stroke:#181818;stroke-width:1;"/></g><g class="link" data-entity-1="JP" data-entity-2="FS2" data-uid="lnk28" id="link_JP_FS2"><polygon fill="#181818" points="471,948.7261,475,939.7261,471,943.7261,467,939.7261,471,948.7261" style="stroke:#181818;stroke-width:1;"/><path d="M471,912.3281 C471,924.0854 471,931.5599 471,942.7261" fill="none" style="stroke:#181818;stroke-width:1;"/></g><g class="link" data-entity-1="RS" data-entity-2="RPT" data-uid="lnk29" id="link_RS_RPT"><polygon fill="#181818" points="299,320.745,303,311.745,299,315.745,295,311.745,299,320.745" style="stroke:#181818;stroke-width:1;"/><path d="M299,264.2232 C299,281.4811 299,297.4813 299,314.745" fill="none" style="stroke:#181818;stroke-width:1;"/></g><g class="link" data-entity-1="FS2" data-entity-2="LA" data-uid="lnk30" id="link_FS2_LA"><polygon fill="#181818" points="471,1053.8354,475,1044.8354,471,1048.8354,467,1044.8354,471,1053.8354" style="stroke:#181818;stroke-width:1;"/><path d="M471,997.0939 C471,1014.3801 471,1031.7225 471,1047.8354" fill="none" style="stroke:#181818;stroke-width:1;"/></g><g class="link" data-entity-1="LA" data-entity-2="VC" data-uid="lnk31" id="link_LA_VC"><polygon fill="#181818" points="473.4085,1149.9672,477.1194,1140.8442,473.249,1144.9697,469.1235,1141.0994,473.4085,1149.9672" style="stroke:#181818;stroke-width:1;"/><path d="M471.5927,1093.0714 C472.1186,1109.5509 472.6916,1127.5024 473.2171,1143.9703" fill="none" style="stroke:#181818;stroke-width:1;"/><text fill="#000000" font-family="sans-serif" font-size="13" lengthAdjust="spacing" textLength="72.8521" x="474" y="1126.897">Loader APIs</text></g><g class="link" data-entity-1="CC" data-entity-2="FP" data-uid="lnk32" id="link_CC_FP"><polygon fill="#181818" points="445.5762,320.7724,447.1693,311.0533,444.3113,315.9351,439.4295,313.0771,445.5762,320.7724" style="stroke:#181818;stroke-width:1;"/><path d="M472.3146,254.5425 C462.2629,261.6747 452.5613,270.8409 447,282 C441.0722,293.8944 440.8081,302.5377 444.0583,314.9676" fill="none" style="stroke:#181818;stroke-width:1;stroke-dasharray:7,7;"/><text fill="#000000" font-family="sans-serif" font-size="13" lengthAdjust="spacing" textLength="76.6741" x="449" y="297.897">orchestrates</text></g><g class="link" data-entity-1="CC" data-entity-2="DF" data-uid="lnk33" id="link_CC_DF"><polygon fill="#181818" points="395.9416,559.8526,405.2855,556.7395,399.6345,556.4818,399.8922,550.8308,395.9416,559.8526" style="stroke:#181818;stroke-width:1;"/><path d="M517.3783,254.9679 C530.5992,284.7315 550.1451,342.7431 522,379 C506.2284,399.3172 484.316,377.9819 467,397 C434.48,432.7167 465.9478,460.4955 443,503 C431.3106,524.6514 416.9939,540.6364 400.3731,555.8076" fill="none" style="stroke:#181818;stroke-width:1;stroke-dasharray:7,7;"/><text fill="#000000" font-family="sans-serif" font-size="13" lengthAdjust="spacing" textLength="76.6741" x="469" y="412.897">orchestrates</text></g><g class="link" data-entity-1="CC" data-entity-2="EN" data-uid="lnk34" id="link_CC_EN"><polygon fill="#181818" points="425.7621,758.7915,433.6805,752.9349,428.228,754.4419,426.721,748.9895,425.7621,758.7915" style="stroke:#181818;stroke-width:1;"/><path d="M521.5089,254.8197 C526.5859,262.8269 531.879,272.4985 535,282 C553.9363,339.6489 562.8184,359.4188 547,418 C533.1891,469.1466 510.4434,473.4908 487,521 C478.7095,537.8012 476.1818,541.9955 471,560 C450.791,630.2172 466.8529,652.9355 443,722 C438.6486,734.5991 435.0155,742.4694 428.7212,753.572" fill="none" style="stroke:#181818;stroke-width:1;stroke-dasharray:7,7;"/><text fill="#000000" font-family="sans-serif" font-size="13" lengthAdjust="spacing" textLength="76.6741" x="489" y="536.897">orchestrates</text></g><g class="link" data-entity-1="CC" data-entity-2="JP" data-uid="lnk35" id="link_CC_JP"><polygon fill="#181818" points="481.2271,853.915,487.7457,846.532,482.729,849.1458,480.1152,844.1291,481.2271,853.915" style="stroke:#181818;stroke-width:1;"/><path d="M524.4915,254.7386 C530.9166,262.7333 537.9369,272.4176 543,282 C551.5356,298.1546 552.579,303.0522 556,321 C574.4135,417.6046 599.1888,449.0732 567,542 C549.597,592.2414 493,582.8299 493,636 C493,636 493,636 493,789 C493,811.2325 488.7745,829.9482 483.0293,848.192" fill="none" style="stroke:#181818;stroke-width:1;stroke-dasharray:7,7;"/><text fill="#000000" font-family="sans-serif" font-size="13" lengthAdjust="spacing" textLength="76.6741" x="559" y="594.397">orchestrates</text></g><!--SRC=[ZLFDRjD04BxxAGPp04HRQAfM5GUar4aGaTEwiK4SSjbunyuAUzVihjj628c7u0bv4cPZ9tN-96mv6UtCDzytipEl82gOj5yc8U2FMZom0gK5bS5qs1zCXcSb1pyk14VemT_VVo1P85IYma98F06K7AnoVxxtej8iBnaKRAbg2wP4ooJpp7SXAwPP2MR1k7eKCeUC5GOx7euPgmkRu9Fj5oANfTEGqW_gJfJ6b3Bc1S9F3-WPAMa3LIWDBy_dxlL-TNCoo-RCh8DlMFezrwgMl8LaQNQD5urFQOwwFRzcL_nYVfJ0UrRX3v-iPgaLIiBhExj03GcoyeqFpC2G67XsbLsr_1tOX0cPaKJqdSC5JqP0uJsE77U3MmxIqA-gLUPl_UtWJQ7WZmH1OWfckKjEmQFuV4TqefaqcT8bMmb_2rDCbKn58LXRITtKSGAVWgWf9faIusKspoxtgnaGVLQenvbSiKTQfMYCqarnZOY85FCiUy-lTnNVYFo-HhsSoUTchf4j-kR-_20dbJ2JyNq8snNv3Mem-W_EVUI6itUyJcV1K6gHBjoW-XlKy7QRyo1w7D_TkYxnEiLDannwVBnBtNk5RdiwFOxt50U5gZa4ggoKwL1rKK5mLF7sM52dKJy8kjfEbwRnKVH4v9hD2MsNy6ucdvErPnehfQrPJTSqIZPfjcSrL8plhrPuVBKS0DjLQJI6_MERbJ2TeuLuQIoMgyHVWqqiwN1BUNhwaVRDSoldJBTDz3LsvBcvTgQRKFfMzc3a3KRhunuTzrRsyDPpq-7CSUIDetM-dkUQw6pg0kLkeiE-5xQKfEa3hCkAFXlFepixEtFyv50wNQ2XnR5erWwYF-mW0OSTuzrK_m00]--></g></svg>