<svg xmlns="http://www.w3.org/2000/svg" xmlns:xlink="http://www.w3.org/1999/xlink" contentStyleType="text/css" data-diagram-type="DESCRIPTION" height="142px" preserveAspectRatio="none" style="width:551px;height:142px;background:#FFFFFF;" version="1.1" viewBox="0 0 551 142" width="551px" zoomAndPan="magnify"><defs/><g><!--entity DB--><g class="entity" data-entity="DB" data-source-line="7" data-uid="ent0002" id="entity_DB"><path d="M6,58 C6,48 52.1269,48 52.1269,48 C52.1269,48 98.2537,48 98.2537,58 L98.2537,86.0679 C98.2537,96.0679 52.1269,96.0679 52.1269,96.0679 C52.1269,96.0679 6,96.0679 6,86.0679 L6,58" fill="#FCF8E3" style="stroke:#181818;stroke-width:0.5;"/><path d="M6,58 C6,68 52.1269,68 52.1269,68 C52.1269,68 98.2537,68 98.2537,58" fill="none" style="stroke:#181818;stroke-width:0.5;"/><text fill="#000000" font-family="sans-serif" font-size="14" lengthAdjust="spacing" textLength="72.2537" x="16" y="86.9659">Mainframe</text></g><!--entity P--><g class="entity" data-entity="P" data-source-line="8" data-uid="ent0003" id="entity_P"><text fill="#000000" font-family="sans-serif" font-size="14" lengthAdjust="spacing" textLength="64.3438" x="286.1719" y="67.9659">Migration</text><text fill="#000000" font-family="sans-serif" font-size="14" lengthAdjust="spacing" textLength="52.4998" x="292.0939" y="87.0339">pipeline</text></g><!--entity VC--><g class="entity" data-entity="VC" data-source-line="9" data-uid="ent0004" id="entity_VC"><path d="M420,22 C420,12 477.0958,12 477.0958,12 C477.0958,12 534.1917,12 534.1917,22 L534.1917,50.0679 C534.1917,60.0679 477.0958,60.0679 477.0958,60.0679 C477.0958,60.0679 420,60.0679 420,50.0679 L420,22" fill="#FCF8E3" style="stroke:#181818;stroke-width:0.5;"/><path d="M420,22 C420,32 477.0958,32 477.0958,32 C477.0958,32 534.1917,32 534.1917,22" fill="none" style="stroke:#181818;stroke-width:0.5;"/><text fill="#000000" font-family="sans-serif" font-size="14" lengthAdjust="spacing" textLength="94.1917" x="430" y="50.9659">Target System</text></g><!--entity R--><g class="entity" data-entity="R" data-source-line="10" data-uid="ent0005" id="entity_R"><rect fill="#DFF0D8" height="58.1358" rx="2.5" ry="2.5" style="stroke:#181818;stroke-width:0.5;" width="111.6436" x="421" y="78"/><text fill="#000000" font-family="sans-serif" font-size="14" lengthAdjust="spacing" textLength="91.6436" x="431" y="102.9659">Reconciliation</text><text fill="#000000" font-family="sans-serif" font-size="14" lengthAdjust="spacing" textLength="48.2998" x="452.6719" y="122.0339">reports</text></g><g class="link" data-entity-1="DB" data-entity-2="P" data-uid="lnk6" id="link_DB_P"><polygon fill="#181818" points="253.6867,72,244.6867,68,248.6867,72,244.6867,76,253.6867,72" style="stroke:#181818;stroke-width:1;"/><path d="M98.1686,72 C140.9574,72 199.6396,72 247.6867,72" fill="none" style="stroke:#181818;stroke-width:1;"/><text fill="#000000" font-family="sans-serif" font-size="13" lengthAdjust="spacing" textLength="99.1121" x="126.6775" y="48.897">Million accounts</text><text fill="#000000" font-family="sans-serif" font-size="13" lengthAdjust="spacing" textLength="116.4671" x="118" y="66.603">Billion transactions</text></g><g class="link" data-entity-1="P" data-entity-2="VC" data-uid="lnk7" id="link_P_VC"><polygon fill="#181818" points="419.9419,48.8951,410.2743,47.0145,415.0692,50.016,412.0677,54.8109,419.9419,48.8951" style="stroke:#181818;stroke-width:1;"/><path d="M383.1545,57.3574 C395.3405,54.5543 402.1688,52.9835 414.0947,50.2402" fill="none" style="stroke:#181818;stroke-width:1;"/></g><g class="link" data-entity-1="P" data-entity-2="R" data-uid="lnk8" id="link_P_R"><polygon fill="#181818" points="420.934,94.6849,413.024,88.8171,416.0545,93.5937,411.278,96.6242,420.934,94.6849" style="stroke:#181818;stroke-width:1;"/><path d="M383.1545,86.2358 C395.679,89.0368 402.8653,90.644 415.0787,93.3754" fill="none" style="stroke:#181818;stroke-width:1;stroke-dasharray:7,7;"/></g><!--SRC=[JP2_JWCn3CRtF8Mv3aojG31K34Zzjt5ITIsTkhWN9nUHSux41-t6G_24F0cvKg4kbcN__FcpRs7jaUMrV05wxzq7UcA1OA1QpPRbQj9gA3RUQO9x-FdwXcr3qCLmyDGMwgQBQ5i4ZwVG2wIM11cL9oCW0QApZO1saMfnWLLwSznXn1PIWpfyEhPWq2UwwcWos7lPqb5ctbbk1pjr3XILqYXum4HGbEZOP9uAm0JBEOnCRQRqe1eweWsS2MSZ3clttBcElEC_TWqZ8lDey4fjYz6ImEQK99yrKBl5l-BW7jdwp5LK1wwTTnVXI5s8aiuJ5OoqCNTwgbIsCnu_vqrFK3hlCmfOrw5dINkUNoeIaHEU7vFK6iuJkyMGJIRFKFq2]--></g></svg>